0
SECTION
2
HEADER
9
$INSUNITS
70
4
9
$ACADVER
1
AC1014
9
$HANDSEED
5
FFFF
0
ENDSEC
0
SECTION
2
TABLES
0
TABLE
2
VPORT
5
8
100
AcDbSymbolTable
0
ENDTAB
0
TABLE
2
LTYPE
5
5
100
AcDbSymbolTable
0
LTYPE
5
14
100
AcDbSymbolTableRecord
100
AcDbLinetypeTableRecord
2
BYBLOCK
70
0
0
LTYPE
5
15
100
AcDbSymbolTableRecord
100
AcDbLinetypeTableRecord
2
BYLAYER
70
0
0
ENDTAB
0
TABLE
2
LAYER
5
2
100
AcDbSymbolTable
70
2
0
LAYER
5
50
100
AcDbSymbolTableRecord
100
AcDbLayerTableRecord
2
0
70
0
6
CONTINUOUS
0
ENDTAB
0
TABLE
2
STYLE
5
3
100
AcDbSymbolTable
70
1
0
STYLE
5
11
100
AcDbSymbolTableRecord
100
AcDbTextStyleTableRecord
2
STANDARD
70
0
0
ENDTAB
0
TABLE
2
VIEW
5
6
100
AcDbSymbolTable
70
0
0
ENDTAB
0
TABLE
2
UCS
5
7
100
AcDbSymbolTable
70
0
0
ENDTAB
0
TABLE
2
APPID
5
9
100
AcDbSymbolTable
70
2
0
APPID
5
12
100
AcDbSymbolTableRecord
100
AcDbRegAppTableRecord
2
ACAD
70
0
0
ENDTAB
0
TABLE
2
DIMSTYLE
5
A
100
AcDbSymbolTable
70
1
0
ENDTAB
0
TABLE
2
BLOCK_RECORD
5
1
100
AcDbSymbolTable
70
1
0
BLOCK_RECORD
5
1F
100
AcDbSymbolTableRecord
100
AcDbBlockTableRecord
2
*MODEL_SPACE
0
BLOCK_RECORD
5
1B
100
AcDbSymbolTableRecord
100
AcDbBlockTableRecord
2
*PAPER_SPACE
0
ENDTAB
0
ENDSEC
0
SECTION
2
BLOCKS
0
BLOCK
5
20
100
AcDbEntity
100
AcDbBlockBegin
2
*MODEL_SPACE
0
ENDBLK
5
21
100
AcDbEntity
100
AcDbBlockEnd
0
BLOCK
5
1C
100
AcDbEntity
100
AcDbBlockBegin
2
*PAPER_SPACE
0
ENDBLK
5
1D
100
AcDbEntity
100
AcDbBlockEnd
0
ENDSEC
0
SECTION
2
ENTITIES
0
LWPOLYLINE
5
100
100
AcDbEntity
8
0
100
AcDbPolyline
90
20
70
1
43
0.0
10
155
20
58.000000000000014
10
155
20
53.000000000000014
10
167.15000000000003
20
53.000000000000014
10
167.15000000000003
20
49.000000000000014
10
155
20
49.000000000000014
10
155
20
38.000000000000007
10
153.80000000000001
20
38.000000000000007
10
153.80000000000001
20
25.000000000000007
10
146.50000000000003
20
25.000000000000007
10
146.50000000000003
20
46.5
10
81.300000000000011
20
46.5
10
81.300000000000011
20
25.000000000000007
10
74
20
25.000000000000007
10
74
20
36.000000000000007
10
71
20
36.000000000000007
10
71
20
40.000000000000007
10
71.000000000000014
20
55.000000000000007
10
151
20
55.000000000000007
10
151
20
58.000000000000014
10
153
20
56.500000000000014
0
LINE
5
101
100
AcDbEntity
8
0
100
AcDbLine
10
144
20
57.600000000000009
30
0
11
142
21
61.600000000000009
31
0
0
LINE
5
102
100
AcDbEntity
8
0
100
AcDbLine
10
7
20
69.600000000000009
30
0
11
5.0000003902799488
21
69.600000000000009
31
0
0
LINE
5
103
100
AcDbEntity
8
0
100
AcDbLine
10
140
20
71.599999999999994
30
0
11
140
21
80.599999999999881
31
0
0
LINE
5
104
100
AcDbEntity
8
0
100
AcDbLine
10
5.0000003902799488
20
69.600000000000009
30
0
11
5
21
71.599999999999994
31
0
0
LINE
5
105
100
AcDbEntity
8
0
100
AcDbLine
10
165
20
71.599999999999994
30
0
11
165
21
61.600000000000009
31
0
0
LINE
5
106
100
AcDbEntity
8
0
100
AcDbLine
10
142
20
61.600000000000009
30
0
11
57
21
61.600000000000009
31
0
0
LINE
5
107
100
AcDbEntity
8
0
100
AcDbLine
10
5
20
71.599999999999994
30
0
11
165
21
71.599999999999994
31
0
0
LINE
5
108
100
AcDbEntity
8
0
100
AcDbLine
10
161
20
61.600000000000009
30
0
11
159
21
57.600000000000009
31
0
0
LINE
5
109
100
AcDbEntity
8
0
100
AcDbLine
10
159
20
57.600000000000009
30
0
11
150
21
57.600000000000009
31
0
0
LINE
5
110
100
AcDbEntity
8
0
100
AcDbLine
10
57
20
61.600000000000009
30
0
11
7
21
57.600000000000009
31
0
0
LINE
5
111
100
AcDbEntity
8
0
100
AcDbLine
10
153
20
56.500000000000014
30
0
11
149.75
21
59.000000000000014
31
0
0
LINE
5
112
100
AcDbEntity
8
0
100
AcDbLine
10
150
20
57.600000000000009
30
0
11
144
21
57.600000000000009
31
0
0
LINE
5
113
100
AcDbEntity
8
0
100
AcDbLine
10
7
20
57.600000000000009
30
0
11
7
21
69.600000000000009
31
0
0
LINE
5
114
100
AcDbEntity
8
0
100
AcDbLine
10
150
20
57.600000000000009
30
0
11
150
21
71.599999999999994
31
0
0
LINE
5
115
100
AcDbEntity
8
0
100
AcDbLine
10
165
20
61.600000000000009
30
0
11
161
21
61.600000000000009
31
0
0
LINE
5
116
100
AcDbEntity
8
0
100
AcDbLine
10
60
20
35.300000000000011
30
0
11
65
21
35.300000000000011
31
0
0
LINE
5
117
100
AcDbEntity
8
0
100
AcDbLine
10
57
20
48.600000000000001
30
0
11
60
21
39.600000000000001
31
0
0
ARC
5
118
100
AcDbEntity
8
0
100
AcDbCircle
10
73.53111111110978
20
-632.32962962965485
30
0
40
716.02148710356471
100
AcDbArc
50
84.673514649029357
51
89.082224426739231
0
LINE
5
119
100
AcDbEntity
8
0
100
AcDbLine
10
153
20
56.500000000000014
30
0
11
156.25
21
59.000000000000014
31
0
0
LINE
5
120
100
AcDbEntity
8
0
100
AcDbLine
10
71
20
40.000000000000007
30
0
11
65
21
40.000000000000007
31
0
0
LINE
5
121
100
AcDbEntity
8
0
100
AcDbLine
10
60
20
39.600000000000001
30
0
11
60
21
35.300000000000011
31
0
0
LINE
5
122
100
AcDbEntity
8
0
100
AcDbLine
10
65
20
35.300000000000011
30
0
11
65
21
61.600000000000009
31
0
0
LINE
5
123
100
AcDbEntity
8
0
100
AcDbLine
10
55.999968916131458
20
71.543692330647858
30
0
11
62.902536944185989
21
83.600000000000009
31
0
0
LINE
5
124
100
AcDbEntity
8
0
100
AcDbLine
10
57
20
61.600000000000009
30
0
11
57
21
48.600000000000001
31
0
0
LINE
5
125
100
AcDbEntity
8
0
100
AcDbLine
10
62.902536944185989
20
83.600000000000009
30
0
11
85.000000000000114
21
83.599999999999852
31
0
0
LINE
5
126
100
AcDbEntity
8
0
100
AcDbLine
10
40.000000000000028
20
47.482842376884534
30
0
11
30.000000000000007
21
47.482842376884534
31
0
0
LINE
5
127
100
AcDbEntity
8
0
100
AcDbLine
10
40.000000000000007
20
12.5
30
0
11
180
21
12.5
31
0
0
LINE
5
128
100
AcDbEntity
8
0
100
AcDbLine
10
180
20
12.5
30
0
11
180
21
25
31
0
0
LWPOLYLINE
5
129
100
AcDbEntity
8
0
100
AcDbPolyline
90
4
70
1
43
0.0
10
40
20
29
10
40
20
16
10
65.000000000000014
20
16.000000000000007
10
65.000000000000014
20
29.000000000000004
0
LINE
5
130
100
AcDbEntity
8
0
100
AcDbLine
10
19.68830539027995
20
14.699999999999998
30
0
11
30
21
14.700000000000003
31
0
0
LINE
5
131
100
AcDbEntity
8
0
100
AcDbLine
10
19.68830539027995
20
30.299999999999997
30
0
11
30
21
30.299999999999997
31
0
0
LINE
5
132
100
AcDbEntity
8
0
100
AcDbLine
10
19.68830539027995
20
30.299999999999997
30
0
11
19.68830539027995
21
14.699999999999998
31
0
0
LINE
5
133
100
AcDbEntity
8
0
100
AcDbLine
10
69.883930861020161
20
25
30
0
11
180
21
25
31
0
0
LINE
5
134
100
AcDbEntity
8
0
100
AcDbLine
10
88.357060615679814
20
29.000000000000007
30
0
11
-10
21
29.000000000000039
31
0
0
LINE
5
135
100
AcDbEntity
8
0
100
AcDbLine
10
69.883930861020161
20
25
30
0
11
69.883930861020161
21
12.5
31
0
0
LINE
5
136
100
AcDbEntity
8
0
100
AcDbLine
10
100
20
12.5
30
0
11
100
21
0
31
0
0
LINE
5
137
100
AcDbEntity
8
0
100
AcDbLine
10
100
20
0
30
0
11
40
21
0
31
0
0
LINE
5
138
100
AcDbEntity
8
0
100
AcDbLine
10
40
20
0
30
0
11
40.000000000000007
21
12.5
31
0
0
LINE
5
139
100
AcDbEntity
8
0
100
AcDbLine
10
40.000000000000028
20
47.482842376884534
30
0
11
40
21
0
31
0
0
LINE
5
140
100
AcDbEntity
8
0
100
AcDbLine
10
30.000000000000007
20
47.482842376884534
30
0
11
30.000000000000007
21
0
31
0
0
LINE
5
141
100
AcDbEntity
8
0
100
AcDbLine
10
40
20
0
30
0
11
30.000000000000007
21
0
31
0
0
LINE
5
142
100
AcDbEntity
8
0
100
AcDbLine
10
30.000000000000007
20
47.482842376884534
30
0
11
30.000000000000007
21
87.5
31
0
0
LINE
5
143
100
AcDbEntity
8
0
100
AcDbLine
10
30.000000000000007
20
59.440000000000012
30
0
11
50
21
59.440000000000012
31
0
0
LWPOLYLINE
5
144
100
AcDbEntity
8
0
100
AcDbPolyline
90
20
70
1
43
0.0
10
191.30000000000001
20
110.00000000000001
10
256.5
20
110.00000000000001
10
256.5
20
88.500000000000014
10
263.80000000000001
20
88.500000000000014
10
263.80000000000001
20
101.50000000000003
10
265
20
101.50000000000003
10
265
20
112.50000000000001
10
277.15000000000003
20
112.50000000000001
10
277.15000000000003
20
116.50000000000003
10
265
20
116.50000000000003
10
265
20
121.50000000000003
10
263
20
120.00000000000001
10
261
20
121.50000000000003
10
261
20
118.50000000000001
10
181
20
118.50000000000001
10
181
20
103.50000000000001
10
181
20
99.500000000000014
10
184
20
99.500000000000014
10
184
20
88.500000000000014
10
191.30000000000001
20
88.500000000000014
0
LINE
5
145
100
AcDbEntity
8
0
100
AcDbLine
10
260
20
121.10000000000001
30
0
11
260
21
135.10000000000002
31
0
0
LINE
5
146
100
AcDbEntity
8
0
100
AcDbLine
10
275
20
135.10000000000002
30
0
11
275
21
125.10000000000002
31
0
0
LINE
5
147
100
AcDbEntity
8
0
100
AcDbLine
10
167
20
112.10000000000001
30
0
11
170
21
103.10000000000001
31
0
0
LINE
5
148
100
AcDbEntity
8
0
100
AcDbLine
10
175
20
98.800000000000026
30
0
11
175
21
125.10000000000002
31
0
0
LINE
5
149
100
AcDbEntity
8
0
100
AcDbLine
10
181
20
103.50000000000001
30
0
11
175
21
103.50000000000001
31
0
0
LINE
5
150
100
AcDbEntity
8
0
100
AcDbLine
10
263
20
120.00000000000001
30
0
11
266.25
21
122.50000000000001
31
0
0
LINE
5
151
100
AcDbEntity
8
0
100
AcDbLine
10
117
20
133.10000000000002
30
0
11
115.00000039027995
21
133.10000000000002
31
0
0
LINE
5
152
100
AcDbEntity
8
0
100
AcDbLine
10
269
20
121.10000000000001
30
0
11
260
21
121.10000000000001
31
0
0
LINE
5
153
100
AcDbEntity
8
0
100
AcDbLine
10
290
20
76
30
0
11
290
21
88.500000000000014
31
0
0
LINE
5
154
100
AcDbEntity
8
0
100
AcDbLine
10
275
20
125.10000000000002
30
0
11
271
21
125.10000000000002
31
0
0
LINE
5
155
100
AcDbEntity
8
0
100
AcDbLine
10
271
20
125.10000000000002
30
0
11
269
21
121.10000000000001
31
0
0
LINE
5
156
100
AcDbEntity
8
0
100
AcDbLine
10
170
20
103.10000000000001
30
0
11
170
21
98.800000000000026
31
0
0
LINE
5
157
100
AcDbEntity
8
0
100
AcDbLine
10
252.00000000000003
20
125.10000000000002
30
0
11
167
21
125.10000000000002
31
0
0
LINE
5
158
100
AcDbEntity
8
0
100
AcDbLine
10
170
20
98.800000000000026
30
0
11
175
21
98.800000000000026
31
0
0
LINE
5
159
100
AcDbEntity
8
0
100
AcDbLine
10
167
20
125.10000000000002
30
0
11
117
21
121.10000000000001
31
0
0
LINE
5
160
100
AcDbEntity
8
0
100
AcDbLine
10
254
20
121.10000000000001
30
0
11
252.00000000000003
21
125.10000000000002
31
0
0
LINE
5
161
100
AcDbEntity
8
0
100
AcDbLine
10
115.00000039027995
20
133.10000000000002
30
0
11
115
21
135.10000000000002
31
0
0
LINE
5
162
100
AcDbEntity
8
0
100
AcDbLine
10
117
20
121.10000000000001
30
0
11
117
21
133.10000000000002
31
0
0
LINE
5
163
100
AcDbEntity
8
0
100
AcDbLine
10
115
20
135.10000000000002
30
0
11
275
21
135.10000000000002
31
0
0
LINE
5
164
100
AcDbEntity
8
0
100
AcDbLine
10
263
20
120.00000000000001
30
0
11
259.75
21
122.50000000000001
31
0
0
LINE
5
165
100
AcDbEntity
8
0
100
AcDbLine
10
165.99996891613145
20
135.04369233064784
30
0
11
172.90253694418598
21
147.10000000000002
31
0
0
LINE
5
166
100
AcDbEntity
8
0
100
AcDbLine
10
250
20
135.10000000000002
30
0
11
250
21
144.09999999999991
31
0
0
LINE
5
167
100
AcDbEntity
8
0
100
AcDbLine
10
172.90253694418598
20
147.10000000000002
30
0
11
195.00000000000011
21
147.09999999999985
31
0
0
LINE
5
168
100
AcDbEntity
8
0
100
AcDbLine
10
260
20
121.10000000000001
30
0
11
254
21
121.10000000000001
31
0
0
LINE
5
169
100
AcDbEntity
8
0
100
AcDbLine
10
167
20
125.10000000000002
30
0
11
167
21
112.10000000000001
31
0
0
ARC
5
170
100
AcDbEntity
8
0
100
AcDbCircle
10
183.53111111110977
20
-568.82962962965485
30
0
40
716.02148710356471
100
AcDbArc
50
84.673514649029357
51
89.082224426739231
0
LINE
5
171
100
AcDbEntity
8
0
100
AcDbLine
10
290
20
88.500000000000014
30
0
11
287.54333384618337
21
88.500000000000014
31
0
0
LINE
5
172
100
AcDbEntity
8
0
100
AcDbLine
10
287.54333384618337
20
88.500000000000014
30
0
11
155
21
88.500000000000014
31
0
0
LINE
5
173
100
AcDbEntity
8
0
100
AcDbLine
10
155
20
88.500000000000014
30
0
11
155
21
76
31
0
0
LINE
5
174
100
AcDbEntity
8
0
100
AcDbLine
10
155
20
76
30
0
11
290
21
76
31
0
0
LINE
5
175
100
AcDbEntity
8
0
100
AcDbLine
10
155
20
76
30
0
11
145
21
76
31
0
0
LINE
5
176
100
AcDbEntity
8
0
100
AcDbLine
10
145
20
76
30
0
11
145.00000000000003
21
110.98284237688455
31
0
0
LINE
5
177
100
AcDbEntity
8
0
100
AcDbLine
10
145.00000000000003
20
110.98284237688455
30
0
11
155
21
110.98284237688455
31
0
0
LINE
5
178
100
AcDbEntity
8
0
100
AcDbLine
10
155
20
110.98284237688455
30
0
11
155
21
76
31
0
0
LINE
5
179
100
AcDbEntity
8
0
100
AcDbLine
10
373
20
183.5
30
0
11
369.75
21
186
31
0
0
LINE
5
180
100
AcDbEntity
8
0
100
AcDbLine
10
373
20
183.5
30
0
11
376.25
21
186
31
0
0
LWPOLYLINE
5
181
100
AcDbEntity
8
0
100
AcDbPolyline
90
20
70
1
43
0.0
10
366.50000000000006
20
173.5
10
366.50000000000006
20
152.00000000000003
10
373.80000000000001
20
152.00000000000003
10
373.80000000000001
20
165.00000000000003
10
375
20
165.00000000000003
10
375
20
176
10
387.15000000000003
20
176
10
387.15000000000003
20
180.00000000000003
10
375
20
180.00000000000003
10
375
20
185.00000000000003
10
373
20
183.5
10
371
20
185.00000000000003
10
371
20
182.00000000000003
10
291
20
182.00000000000003
10
291
20
167.00000000000003
10
291
20
163.00000000000006
10
294
20
163.00000000000006
10
294
20
152.00000000000003
10
301.30000000000001
20
152.00000000000003
10
301.30000000000001
20
173.5
0
LWPOLYLINE
5
182
100
AcDbEntity
8
0
100
AcDbPolyline
90
9
70
1
43
0.0
10
400
20
152.00000000000003
10
400
20
139.50000000000003
10
265
20
139.50000000000003
10
265
20
174.48284237688455
10
255
20
174.48284237688455
10
255
20
139.50000000000003
10
265
20
139.50000000000003
10
265
20
152.00000000000003
10
397.54333384618337
20
152.00000000000003
0
LINE
5
183
100
AcDbEntity
8
0
100
AcDbLine
10
385
20
188.60000000000002
30
0
11
381
21
188.60000000000002
31
0
0
LINE
5
184
100
AcDbEntity
8
0
100
AcDbLine
10
381
20
188.60000000000002
30
0
11
379
21
184.60000000000002
31
0
0
LINE
5
185
100
AcDbEntity
8
0
100
AcDbLine
10
379
20
184.60000000000002
30
0
11
370
21
184.60000000000002
31
0
0
LINE
5
186
100
AcDbEntity
8
0
100
AcDbLine
10
291
20
167.00000000000003
30
0
11
285
21
167.00000000000003
31
0
0
LINE
5
187
100
AcDbEntity
8
0
100
AcDbLine
10
275.99996891613148
20
198.54369233064787
30
0
11
282.90253694418601
21
210.60000000000002
31
0
0
LINE
5
188
100
AcDbEntity
8
0
100
AcDbLine
10
385
20
198.60000000000002
30
0
11
385
21
188.60000000000002
31
0
0
LINE
5
189
100
AcDbEntity
8
0
100
AcDbLine
10
360
20
198.60000000000002
30
0
11
360
21
207.59999999999991
31
0
0
LINE
5
190
100
AcDbEntity
8
0
100
AcDbLine
10
370
20
184.60000000000002
30
0
11
370
21
198.60000000000002
31
0
0
LINE
5
191
100
AcDbEntity
8
0
100
AcDbLine
10
364
20
184.60000000000002
30
0
11
362
21
188.60000000000002
31
0
0
ARC
5
192
100
AcDbEntity
8
0
100
AcDbCircle
10
293.53111111110979
20
-505.32962962965485
30
0
40
716.02148710356471
100
AcDbArc
50
84.673514649029357
51
89.082224426739231
0
LINE
5
193
100
AcDbEntity
8
0
100
AcDbLine
10
277
20
188.60000000000002
30
0
11
277
21
175.60000000000002
31
0
0
LINE
5
194
100
AcDbEntity
8
0
100
AcDbLine
10
277
20
175.60000000000002
30
0
11
280
21
166.60000000000002
31
0
0
LINE
5
195
100
AcDbEntity
8
0
100
AcDbLine
10
280
20
166.60000000000002
30
0
11
280
21
162.30000000000004
31
0
0
LINE
5
196
100
AcDbEntity
8
0
100
AcDbLine
10
282.90253694418601
20
210.60000000000002
30
0
11
305.00000000000011
21
210.59999999999988
31
0
0
LINE
5
197
100
AcDbEntity
8
0
100
AcDbLine
10
285
20
162.30000000000004
30
0
11
285
21
188.60000000000002
31
0
0
LINE
5
198
100
AcDbEntity
8
0
100
AcDbLine
10
280
20
162.30000000000004
30
0
11
285
21
162.30000000000004
31
0
0
LINE
5
199
100
AcDbEntity
8
0
100
AcDbLine
10
362
20
188.60000000000002
30
0
11
277
21
188.60000000000002
31
0
0
LINE
5
200
100
AcDbEntity
8
0
100
AcDbLine
10
370
20
184.60000000000002
30
0
11
364
21
184.60000000000002
31
0
0
LINE
5
201
100
AcDbEntity
8
0
100
AcDbLine
10
225
20
198.60000000000002
30
0
11
385
21
198.60000000000002
31
0
0
LINE
5
202
100
AcDbEntity
8
0
100
AcDbLine
10
227
20
184.60000000000002
30
0
11
227
21
196.60000000000002
31
0
0
LINE
5
203
100
AcDbEntity
8
0
100
AcDbLine
10
277
20
188.60000000000002
30
0
11
227
21
184.60000000000002
31
0
0
LINE
5
204
100
AcDbEntity
8
0
100
AcDbLine
10
225.00000039027995
20
196.60000000000002
30
0
11
225
21
198.60000000000002
31
0
0
LINE
5
205
100
AcDbEntity
8
0
100
AcDbLine
10
227
20
196.60000000000002
30
0
11
225.00000039027995
21
196.60000000000002
31
0
0
LINE
5
206
100
AcDbEntity
8
0
100
AcDbLine
10
0
20
0
30
0
11
0
21
75
31
0
0
LINE
5
207
100
AcDbEntity
8
0
100
AcDbLine
10
0
20
75
30
0
11
110
21
75
31
0
0
LINE
5
208
100
AcDbEntity
8
0
100
AcDbLine
10
110
20
75
30
0
11
110
21
138.5
31
0
0
LINE
5
209
100
AcDbEntity
8
0
100
AcDbLine
10
110
20
138.5
30
0
11
220
21
138.5
31
0
0
LINE
5
210
100
AcDbEntity
8
0
100
AcDbLine
10
220
20
138.5
30
0
11
220
21
202.00000000000003
31
0
0
LINE
5
211
100
AcDbEntity
8
0
100
AcDbLine
10
220
20
202.00000000000003
30
0
11
425
21
202.00000000000003
31
0
0
LINE
5
212
100
AcDbEntity
8
0
100
AcDbLine
10
425
20
202.00000000000003
30
0
11
425
21
0
31
0
0
LINE
5
213
100
AcDbEntity
8
0
100
AcDbLine
10
425
20
0
30
0
11
0
21
0
31
0
0
LINE
5
214
100
AcDbEntity
8
0
100
AcDbLine
10
425
20
202.00000000000003
30
0
11
425
21
214.50000000000003
31
0
0
LINE
5
215
100
AcDbEntity
8
0
100
AcDbLine
10
425
20
214.50000000000003
30
0
11
365
21
214.50000000000003
31
0
0
LINE
5
216
100
AcDbEntity
8
0
100
AcDbLine
10
365
20
214.50000000000003
30
0
11
365
21
202.00000000000003
31
0
0
ENDSEC
0
SECTION
2
OBJECTS
0
DICTIONARY
5
C
100
AcDbDictionary
3
ACAD_GROUP
350
D
3
ACAD_MLINESTYLE
350
17
0
DICTIONARY
5
D
100
AcDbDictionary
0
DICTIONARY
5
1A
330
C
100
AcDbDictionary
0
DICTIONARY
5
17
100
AcDbDictionary
0
ENDSEC
0
EOF
